<svg xmlns="http://www.w3.org/2000/svg" viewBox="0 0 92.02 30"><defs><style>.cls-1{fill:#ccc;}</style></defs><title>bitso_logo</title><g id="Capa_2" data-name="Capa 2"><g id="Capa_1-2" data-name="Capa 1"><path class="cls-1" d="M33.79,6.89A.23.23,0,0,1,34,6.65h6.34c3.55,0,5.19,1.74,5.19,4.34a3.68,3.68,0,0,1-1.89,3.47v0a3.81,3.81,0,0,1,2.18,3.69c0,3.21-2.13,4.75-5.64,4.75H34a.23.23,0,0,1-.25-.24Zm6.15,6.42a1.87,1.87,0,0,0,2.13-1.92c0-1.19-.79-1.88-2.13-1.88H37.46c-.1,0-.15,0-.15.14v3.52c0,.1,0,.14.15.14Zm-2.48,6.78h2.67a1.94,1.94,0,0,0,2.22-2,2,2,0,0,0-2.22-2H37.46a.13.13,0,0,0-.15.15V20C37.31,20,37.36,20.09,37.46,20.09Z"/><path class="cls-1" d="M47.43,6.87a.23.23,0,0,1,.24-.24h3a.23.23,0,0,1,.24.24V22.69a.23.23,0,0,1-.24.24h-3a.23.23,0,0,1-.24-.24Z"/><path class="cls-1" d="M57.14,23a.23.23,0,0,1-.24-.24V9.94a.12.12,0,0,0-.14-.14H52.64a.23.23,0,0,1-.24-.25V6.89a.23.23,0,0,1,.24-.24H64.7a.23.23,0,0,1,.24.24V9.55a.23.23,0,0,1-.24.25H60.58c-.1,0-.14,0-.14.14V22.71a.23.23,0,0,1-.25.24Z"/><path class="cls-1" d="M65.31,21a.28.28,0,0,1,0-.4l1.82-2.09a.24.24,0,0,1,.36,0,7,7,0,0,0,4.26,1.68c1.69,0,2.66-.79,2.66-1.94,0-.95-.58-1.55-2.52-1.82L71,16.28c-3.31-.45-5.15-2-5.15-4.89s2.26-5,5.78-5A9.23,9.23,0,0,1,77.17,8.1c.15.1.16.19,0,.36l-1.47,2.18a.24.24,0,0,1-.34.06,6.71,6.71,0,0,0-3.79-1.24c-1.44,0-2.18.74-2.18,1.77S70.12,12.77,72,13l.85.12c3.36.45,5.13,2,5.13,4.93s-2.18,5.14-6.39,5.14A9.52,9.52,0,0,1,65.31,21Z"/><path class="cls-1" d="M79.69,19.25a13.17,13.17,0,0,1-.45-4.45,13.24,13.24,0,0,1,.45-4.46c.84-2.63,3.1-3.95,5.94-3.95s5.1,1.32,5.94,4A13.51,13.51,0,0,1,92,14.8a13.44,13.44,0,0,1-.45,4.45c-.84,2.63-3.1,4-5.94,4S80.53,21.88,79.69,19.25Zm8.5-.95a11.74,11.74,0,0,0,.26-3.5,11.74,11.74,0,0,0-.26-3.5,2.46,2.46,0,0,0-2.56-1.79,2.49,2.49,0,0,0-2.57,1.79,12.12,12.12,0,0,0-.26,3.5,12.12,12.12,0,0,0,.26,3.5,2.73,2.73,0,0,0,5.13,0Z"/><path class="cls-1" d="M14.67.68a15.12,15.12,0,0,0-3.39.38.47.47,0,0,0-.29.18.6.6,0,0,0-.1.31v8.68s0,.18.08.24.17.07.29,0a6,6,0,0,1,9.4,4.89V28.39a.22.22,0,0,0,.06.19.2.2,0,0,0,.21,0A14.66,14.66,0,0,0,14.67.68Z"/><path class="cls-1" d="M18.41,20.14c-.06-.05-.13-.06-.22,0A6,6,0,0,1,8.7,15.33V.4A.39.39,0,0,0,8.55.08.47.47,0,0,0,8.25,0H.45A.51.51,0,0,0,.13.11.38.38,0,0,0,0,.42C0,2.57,0,12.6,0,15.35A14.64,14.64,0,0,0,18.14,29.58a.48.48,0,0,0,.22-.16.71.71,0,0,0,.1-.32V20.35S18.48,20.2,18.41,20.14Z"/></g></g></svg>